<?xml version="1.0" encoding="UTF-8"?>
<!DOCTYPE svg PUBLIC "-//W3C//DTD SVG 1.1//EN" "http://www.w3.org/Graphics/SVG/1.1/DTD/svg11.dtd">
<!-- Creator: CorelDRAW -->
<svg xmlns="http://www.w3.org/2000/svg" xml:space="preserve" width="6.82666in" height="6.82666in" style="shape-rendering:geometricPrecision; text-rendering:geometricPrecision; image-rendering:optimizeQuality; fill-rule:evenodd; clip-rule:evenodd"
viewBox="0 0 6.82666 6.82666"
 xmlns:xlink="http://www.w3.org/1999/xlink">
 <defs>
  <style type="text/css">
   <![CDATA[
    .fil3 {fill:none}
    .fil0 {fill:#424242}
    .fil1 {fill:#FFFFFE}
    .fil2 {fill:#FFFFFE;fill-rule:nonzero}
   ]]>
  </style>
 </defs>
 <rect class="fil0" width="6.82666" height="6.82666"/>
 <g id="Layer_x0020_1">
  <metadata id="CorelCorpID_0Corel-Layer"/>
  <path class="fil1" d="M0.80502 3.55436c-0.0484646,0.286169 0.0340866,0.579669 0.0513661,0.640803 0.000440945,0.00202756 0.000933071,0.00406299 0.00149606,0.00609055l0.000204724 -5.51181e-005 7.48031e-005 0.000271654 0.000110236 -3.14961e-005c0.0648425,0.233205 0.175185,0.315508 0.297594,0.406795 0.0960039,0.0715945 0.201453,0.150232 0.287079,0.350791 0.0974567,0.228256 0.314638,0.389087 0.571146,0.490437 0.291008,0.11498 0.63722,0.15461 0.908965,0.128654 0.273031,0.109185 0.605551,0.15002 0.922488,0.114047 0.295823,-0.0335748 0.580685,-0.134 0.795661,-0.308087 0.223484,-0.0234409 0.505646,-0.0986496 0.726992,-0.239795 0.186461,-0.118898 0.331154,-0.284094 0.370067,-0.50461 0.0297402,-0.168547 0.0901614,-0.302504 0.147252,-0.429079 0.103984,-0.230567 0.19824,-0.439547 0.125472,-0.779866 -0.0104094,0.00944882 -0.0200787,0.0187598 -0.0291181,0.0279606 -0.0375709,0.079689 -0.0873543,0.152768 -0.144047,0.220224l-0.00123622 0.00243307 -0.0152362 0.130787c-0.0120118,0.103118 -0.0436102,0.202228 -0.091378,0.294295 -0.054185,0.104437 -0.127736,0.19726 -0.213437,0.277594 -0.116831,0.10952 -0.254693,0.195098 -0.401508,0.258295 -0.083374,0.0358858 -0.169811,0.0647205 -0.257787,0.0869843l-0.179543 0.045437c-0.17126,0.13872 -0.38,0.233098 -0.591736,0.28676 -0.0767402,0.0194449 -0.154728,0.0339449 -0.233295,0.043626 -0.171642,0.0211496 -0.346413,0.0196102 -0.517606,-0.00499606 -0.142346,-0.0204567 -0.279106,-0.0610748 -0.412976,-0.111744l-0.158189 0.00320079c-0.273709,0.00554331 -0.553535,-0.0456063 -0.802921,-0.159878 -0.18676,-0.0855748 -0.359748,-0.208398 -0.486177,-0.371815 -0.0916575,-0.118476 -0.150252,-0.252677 -0.176921,-0.396717l-0.0729055 -0.0466457c-0.0153228,-0.00980315 -0.0304646,-0.0198898 -0.0453858,-0.0302953 -0.161268,-0.112469 -0.29548,-0.259189 -0.374563,-0.431874z"/>
  <g id="_288751768">
   <path id="_288752800" class="fil2" d="M2.56293 3.33801c0.231386,-0.00478346 0.463067,-0.0480827 0.647886,-0.140299l-0.0471575 0.138366c-0.0425276,0.124791 -0.140075,0.22685 -0.246402,0.301004 -0.213067,0.148594 -0.490102,0.212228 -0.746992,0.212228 -0.103602,0 -0.207488,-0.00988189 -0.308945,-0.0310394 -0.0852835,-0.0177874 -0.169394,-0.043378 -0.249555,-0.0777244l-0.0272362 -0.0125039c-0.106882,-0.0490787 -0.233815,-0.0020315 -0.282894,0.104846 -0.0136024,0.0296181 -0.0195354,0.0614724 -0.0191811,0.0937913 -0.0142323,-0.0091063 -0.0281969,-0.0184134 -0.0418583,-0.0279409 -0.250673,-0.174819 -0.40572,-0.419642 -0.40572,-0.69302 0,-0.130425 0.0356732,-0.254815 0.100543,-0.368689 0.0640591,-0.112453 0.156539,-0.213839 0.270902,-0.29961 0.018752,-0.0164134 0.0433031,-0.0263661 0.0701811,-0.0263701 0.0589094,-1.1811e-005 0.106681,0.0477283 0.106693,0.106638l-0.106665 2.75591e-005 0.106252 0c2.3622e-005,0.0994567 0.00209843,0.181256 0.0405276,0.256205 0.0412598,0.0804646 0.12676,0.166323 0.297079,0.278374 0.183142,0.120484 0.509335,0.19261 0.842543,0.185717zm0.654185 -0.143472c0.0372047,-0.0188976 0.0724803,-0.0397953 0.105406,-0.0628031 0.0195669,-0.0235591 0.0490827,-0.0385669 0.0820984,-0.0385669 0.0589094,0 0.106669,0.0477598 0.106669,0.106669 0,0.0534331 -0.00600787,0.105827 -0.0175157,0.156878 -0.0391693,-0.0188583 -0.0799134,-0.034811 -0.122028,-0.0478465 -0.0144961,-0.00448819 -0.0281063,-0.011626 -0.0398976,-0.0211969l-0.114732 -0.0931339z"/>
   <path id="_288752680" class="fil2" d="M3.33942 3.11961l0.0594882 0.0802283 -0.100953 0c0,-0.0258937 0.00922835,-0.049626 0.0245709,-0.0681024 0.00569685,-0.00398425 0.0113386,-0.00801969 0.0168937,-0.012126z"/>
   <path id="_288752200" class="fil2" d="M3.46609 3.29044c0.0296063,-0.0219528 0.0445236,-0.0563622 0.0428819,-0.0906063l-0.110063 0 0.0671811 0.0906063z"/>
   <path id="_288752272" class="fil2" d="M1.20928 2.41554c0.0213976,-0.0747441 0.055126,-0.14798 0.101268,-0.218118 0.061311,-0.093189 0.144213,-0.180437 0.24876,-0.257728 0.11961,-0.0884291 0.257181,-0.156634 0.404339,-0.204492 0.148287,-0.0482323 0.307268,-0.0760787 0.468063,-0.0833701 0.0369409,-0.00455512 0.0752047,0.010374 0.0989134,0.0424331 0.0350276,0.0473622 0.0250315,0.114161 -0.0223307,0.149189l-0.00019685 -0.000267717c-0.101386,0.0750039 -0.180382,0.163043 -0.230457,0.259012 -0.0461417,0.0884291 -0.067752,0.184744 -0.0593898,0.284669 0.0168031,0.200799 0.152961,0.380469 0.359488,0.508614 0.166815,0.103504 0.377894,0.172965 0.610024,0.194039 -0.00627559,0.00338583 -0.0125945,0.00669291 -0.0189488,0.00992126l-0.00306693 0.00155906 -0.00255118 0.00127165c-0.180551,0.0900866 -0.40226,0.124961 -0.602469,0.129102 -0.235299,0.00486614 -0.58061,-0.0358819 -0.781713,-0.168185 -0.0836614,-0.0550394 -0.213594,-0.14589 -0.260791,-0.237933 -0.031811,-0.0620354 -0.0269134,-0.214768 -0.0569213,-0.314201 -0.0369055,-0.0637677 -0.105874,-0.106677 -0.184819,-0.106665 -0.0232126,3.93701e-006 -0.0457874,0.00388976 -0.0672008,0.0111496zm2.09123 0.978717c-0.0185354,0.00965748 -0.0373465,0.0189449 -0.0564173,0.0278386 0.00765748,-0.0168031 0.0145354,-0.0340039 0.0205315,-0.0516024 0.011185,0.00907874 0.0232126,0.0170236 0.0358858,0.0237638z"/>
   <path id="_288752296" class="fil2" d="M2.57576 1.58939c0.186866,-0.104886 0.414909,-0.175181 0.665358,-0.19615 0.0222165,-0.00185827 0.0490472,-0.00344094 0.0805709,-0.00472047 0.169713,-0.00690551 0.33363,0.00911811 0.485539,0.0442087 0.155531,0.0359291 0.29939,0.0920866 0.424949,0.164327 0.0349409,0.0163425 0.0597874,0.0511181 0.0614685,0.0923189 0.00240157,0.0588583 -0.0433661,0.108531 -0.102224,0.110933l-0.00435433 -0.106579 0.00416535 0.106252c-0.155563,0.00635433 -0.308961,0.0345354 -0.44989,0.0839094 -0.133587,0.0468031 -0.255339,0.112425 -0.356146,0.196244 -0.0744606,0.0619134 -0.131992,0.129173 -0.172953,0.199193 -0.060063,0.102689 -0.084185,0.211976 -0.0734685,0.31902 0.0108307,0.108157 0.0573386,0.215449 0.138386,0.312925 0.0249173,0.0299646 0.0530984,0.0590197 0.0845157,0.0869252l-0.164268 -0.0149134c-0.195445,-0.0177441 -0.39585,-0.0744685 -0.563433,-0.178449 -0.15122,-0.0938268 -0.293866,-0.240882 -0.309429,-0.42687 -0.00662992,-0.0792205 0.0110079,-0.156185 0.0476614,-0.226433 0.0425669,-0.0815827 0.107803,-0.151346 0.180157,-0.208012l0.0193543 -0.014315c0.0946969,-0.0700354 0.114701,-0.203677 0.0446654,-0.298374 -0.0117835,-0.0159331 -0.0254843,-0.0297795 -0.040626,-0.0414409zm0.875591 1.47911c0.0202598,0.014063 0.0414724,0.0277165 0.0636496,0.0409252 0.0345157,0.0165 0.0589921,0.0510669 0.0606535,0.0919488 0.0023937,0.0588583 -0.0433819,0.108524 -0.10224,0.110917l-0.00433858 -0.106579 0.00416535 0.106252c-0.0327441,0.00133465 -0.0652835,0.00179528 -0.0975787,0.00143701l-0.025063 -0.0133268c-0.00662992,-0.00352756 -0.0129213,-0.00767717 -0.018752,-0.0124094l-0.114732 -0.093126 3.54331e-005 -1.9685e-005c0.00713386,-0.00362598 0.0142205,-0.00733465 0.0212598,-0.0111339l0.212941 -0.114886zm-0.275535 0.231913c-0.0549843,-0.00659843 -0.108898,-0.015626 -0.161508,-0.0269134 0.0682598,-0.0198346 0.134374,-0.0448189 0.196472,-0.0757717l2.75591e-005 -1.1811e-005 -0.0349921 0.102697z"/>
   <path id="_288752368" class="fil2" d="M4.37587 1.5952c0.23324,0.0235669 0.460965,0.0915945 0.656114,0.205744 0.134811,0.0788583 0.242512,0.172902 0.322256,0.276 0.0836772,0.108181 0.136752,0.226272 0.158406,0.347575 0.00622047,0.0258425 0.00285827,0.0540394 -0.011622,0.0787992 -0.0297362,0.0508543 -0.0950709,0.0679764 -0.145925,0.0382402l0.0538425 -0.0920827 -0.053752 0.0916654c-0.117374,-0.0686299 -0.255339,-0.120862 -0.405909,-0.152276 -0.145524,-0.0303583 -0.30276,-0.0409291 -0.464547,-0.0277087 -0.0476142,0.00388976 -0.0933583,0.0095748 -0.137118,0.0169213 -0.265386,0.0445787 -0.488969,0.151122 -0.641106,0.293496 -0.097315,0.0910709 -0.16474,0.196913 -0.193594,0.309819l-0.000740157 -0.000511811 -0.0429252 -0.0297953 -0.0367362 -0.0326299c-0.0262244,-0.0232953 -0.0509016,-0.0483976 -0.0733346,-0.075374 -0.0607362,-0.0730433 -0.104713,-0.159941 -0.114268,-0.255354 -0.00897244,-0.0896063 0.014185,-0.177228 0.0594055,-0.254539 0.0383583,-0.0655709 0.0908465,-0.12261 0.149079,-0.171031 0.094815,-0.0788346 0.207185,-0.136941 0.323217,-0.177594 0.22339,-0.0782677 0.635882,0.00088189 0.62361,-0.299531 -0.00131496,-0.0322047 -0.00991339,-0.0626417 -0.0243504,-0.0898307zm-1.26046 1.52924c-0.0169921,-0.0165276 -0.0331732,-0.0333898 -0.0485354,-0.0505472 0.0402559,0.00677953 0.0806378,0.0119724 0.120894,0.015626 -0.0068937,0.00371654 -0.0139173,0.00712205 -0.0208031,0.010878l-0.00376378 0.00187402c-0.0157126,0.00783465 -0.0316575,0.0152126 -0.0477913,0.0221693z"/>
   <path id="_288751504" class="fil2" d="M5.62124 2.46706c0.172535,0.140717 0.289575,0.319701 0.323516,0.521732 0.021815,0.129894 0.00695669,0.257067 -0.0388661,0.376453 -0.0457087,0.119075 -0.121752,0.228957 -0.222331,0.324555 -0.0154764,0.0168031 -0.036437,0.0287913 -0.0607047,0.032874 -0.0580906,0.00977559 -0.113114,-0.0293976 -0.12289,-0.0874882l0.105189 -0.0177008 -0.105 0.0175c-0.0162441,-0.0965591 -0.0612244,-0.191713 -0.133563,-0.279047 -0.0724724,-0.0874921 -0.171906,-0.166728 -0.297098,-0.231681 -0.253606,-0.131579 -0.560756,-0.178906 -0.852315,-0.149055 -0.286551,0.0293425 -0.55563,0.132831 -0.74048,0.303591 -0.0154094,0.0164094 -0.0361142,0.0281024 -0.0600276,0.0321181 -0.0580945,0.00975984 -0.113106,-0.0294252 -0.122866,-0.0875197l0.105193 -0.0176732 -0.105 0.0175c-0.00356299,-0.0212205 -0.00612992,-0.0415315 -0.0077126,-0.0609213l-0.000334646 -0.00453937 0.165472 -0.0892087 0.126886 0.0877402 0.0379488 -0.148492c0.0256929,-0.100528 0.088185,-0.188205 0.163134,-0.258346 0.156929,-0.146858 0.376587,-0.231039 0.58589,-0.266185 0.0424528,-0.00712992 0.0852402,-0.0122992 0.128138,-0.0158031 0.14474,-0.0118268 0.291846,-0.00385827 0.434079,0.025815 0.196276,0.0409488 0.302098,0.12663 0.480031,0.169472 0.0737402,0.000358268 0.145756,-0.0375039 0.185575,-0.105591 0.0163268,-0.0279213 0.025626,-0.0586417 0.0281378,-0.0900984zm-2.32826 0.524898c0.00277165,-0.0171417 0.00616535,-0.0341614 0.0101772,-0.0510433 0.0185276,0.0200591 0.0380984,0.0391457 0.0585118,0.0572756l-0.068689 -0.00623228z"/>
   <path id="_288751624" class="fil2" d="M5.7154 3.79979c-0.0101575,0.0872008 -0.036689,0.173827 -0.0801102,0.257516 -0.0454567,0.0876142 -0.109181,0.171539 -0.191705,0.248898 -0.105138,0.0985591 -0.231496,0.178205 -0.370732,0.238138 -0.0769882,0.0331378 -0.158071,0.0603701 -0.241783,0.0815551 0.16111,-0.188858 0.248783,-0.424067 0.217882,-0.674713 -0.00426772,-0.0346378 -0.0108307,-0.0689724 -0.0194016,-0.102795 -0.0697677,-0.275268 -0.275409,-0.487941 -0.514264,-0.62961 -0.092437,-0.0548268 -0.191709,-0.100374 -0.294823,-0.136661l0.00757874 -0.000799213c0.26628,-0.0272638 0.553626,0.0137835 0.792327,0.137626 0.0987953,0.0512559 0.192732,0.118909 0.264075,0.205043 0.0450551,0.0543937 0.138689,0.331976 0.155984,0.329094 0.0469488,0.0569134 0.122169,0.0879016 0.200122,0.0747835 0.0268858,-0.00452362 0.0520748,-0.0141929 0.0748504,-0.0280748z"/>
   <path id="_288751720" class="fil2" d="M3.70498 3.50171c-0.0808819,-0.0761969 -0.191291,-0.142374 -0.333232,-0.192839 -0.0408622,-0.010811 -0.0730787,-0.0454882 -0.0786063,-0.0900039 -0.00725984,-0.0584606 0.034248,-0.11174 0.0927087,-0.119l0.0131457 0.105854 -0.0129173 -0.105835 0.000602362 -7.48031e-005c0.0774488,-0.00954331 0.152945,-0.0188465 0.237937,-0.017315 0.30389,0.00549213 0.602091,0.0891299 0.836256,0.22802 0.233913,0.138744 0.40689,0.333669 0.46528,0.564075 0.00768898,0.0303346 0.013311,0.0602402 0.016937,0.0896417 0.0278858,0.226248 -0.0542559,0.442496 -0.21761,0.620035 -0.155894,0.169433 -0.386965,0.303185 -0.665724,0.373831 -0.0708071,0.0179449 -0.14435,0.0318189 -0.220134,0.0411575 -0.166815,0.0205551 -0.332244,0.017878 -0.48939,-0.00470866 -0.159921,-0.0229843 -0.311543,-0.0669252 -0.447587,-0.128244 -0.0369134,-0.0130591 -0.0652362,-0.0460315 -0.0703583,-0.0875315 -0.00721654,-0.0584646 0.0343307,-0.111713 0.0927953,-0.118929l0.0130669 0.105862 -0.0129173 -0.105835c0.153835,-0.0189843 0.280272,-0.0362598 0.394673,-0.0817717 0.113311,-0.0450748 0.223941,-0.120748 0.35378,-0.258571 0.0799803,-0.0848937 0.137028,-0.176598 0.169394,-0.269425 0.0336378,-0.0964606 0.0404921,-0.194724 0.018437,-0.287831 -0.0220866,-0.0932441 -0.0735472,-0.182378 -0.156535,-0.260563z"/>
   <path id="_288752008" class="fil2" d="M2.76174 4.88494c-0.258598,0.00523622 -0.522598,-0.0431063 -0.756331,-0.150205 -0.192409,-0.0881654 -0.342543,-0.206075 -0.446244,-0.340114 -0.109126,-0.141055 -0.167173,-0.300043 -0.169803,-0.462126 -0.00183858,-0.018252 0.00100394,-0.0372205 0.0092126,-0.0550945 0.0245827,-0.0535354 0.0879134,-0.0770079 0.141449,-0.0524252l-0.000161417 0.000354331c0.0911102,0.0418189 0.191846,0.0748701 0.299689,0.0973583 0.103807,0.0216496 0.214783,0.0332874 0.33072,0.0332874 0.317469,0 0.603008,-0.0884331 0.808008,-0.231402 0.139224,-0.0970945 0.240339,-0.219079 0.28635,-0.354087 0.0219606,0.0178268 0.0475669,0.0316063 0.0755866,0.0402795 0.109551,0.0339016 0.208106,0.0898976 0.291626,0.168579 0.0603228,0.0568307 0.106626,0.126217 0.125886,0.207512 0.0180748,0.076311 0.0103268,0.154445 -0.0153622,0.228126 -0.0301969,0.0865984 -0.0837402,0.164976 -0.146315,0.231402 -0.090622,0.0961929 -0.191469,0.183232 -0.315571,0.232602 -0.0930315,0.0370079 -0.200075,0.0537638 -0.302091,0.0667992l-0.0663701 0.00819291c-0.00147244,0.000181102 -0.00294094,0.000377953 -0.00440157,0.000590551l-0.101165 0.0124843 0.00344488 0.0282402c-0.0588465,0.0444567 -0.0931299,0.118252 -0.0834685,0.196543 0.00423622,0.034311 0.0166457,0.0659094 0.035311,0.0931024z"/>
  </g>
 </g>
 <rect class="fil3" width="6.82666" height="6.82666"/>
</svg>
