<?xml version="1.0" encoding="UTF-8"?>
<!DOCTYPE svg PUBLIC "-//W3C//DTD SVG 1.1//EN" "http://www.w3.org/Graphics/SVG/1.1/DTD/svg11.dtd">
<!-- Creator: CorelDRAW -->
<svg xmlns="http://www.w3.org/2000/svg" xml:space="preserve" width="6.82666in" height="6.82666in" style="shape-rendering:geometricPrecision; text-rendering:geometricPrecision; image-rendering:optimizeQuality; fill-rule:evenodd; clip-rule:evenodd"
viewBox="0 0 6.82666 6.82666"
 xmlns:xlink="http://www.w3.org/1999/xlink">
 <defs>
  <style type="text/css">
   <![CDATA[
    .fil2 {fill:none}
    .fil0 {fill:#8661C1}
    .fil1 {fill:#FFFFFE}
   ]]>
  </style>
 </defs>
 <rect class="fil0" width="6.82666" height="6.82666"/>
 <g id="Layer_x0020_1">
  <metadata id="CorelCorpID_0Corel-Layer"/>
  <path class="fil1" d="M3.41333 0.853331c0.706909,0 1.34691,0.286543 1.81019,0.749815 0.463272,0.463272 0.749815,1.10328 0.749815,1.81019 0,0.706909 -0.286543,1.34691 -0.749815,1.81019 -0.463272,0.463272 -1.10328,0.749815 -1.81019,0.749815 -0.706909,0 -1.34691,-0.286543 -1.81019,-0.749815 -0.463272,-0.463272 -0.749815,-1.10328 -0.749815,-1.81019 0,-0.706909 0.286543,-1.34691 0.749815,-1.81019 0.463272,-0.463272 1.10328,-0.749815 1.81019,-0.749815zm-2.13292 2.56c0,0.0586811 0.0475709,0.106252 0.106252,0.106252 0.0586811,0 0.106252,-0.0475709 0.106252,-0.106252 0,-0.529921 0.215067,-1.00995 0.562768,-1.35765 0.347437,-0.347441 0.827449,-0.562346 1.35765,-0.562346 0.0265984,0 0.0435709,9.44882e-005 0.0507441,0.000283465 0.0138583,0.000362205 0.0306535,0.00106693 0.0503583,0.00210236 0.0586811,0.00298819 0.108681,-0.0421535 0.111669,-0.100835 0.00298819,-0.0586811 -0.0421535,-0.108681 -0.100835,-0.111669 -0.0157874,-0.000826772 -0.0345236,-0.0015315 -0.0561929,-0.00210236 -0.0283071,-0.000744094 -0.0468425,-0.00111811 -0.0557441,-0.00111811 -0.589087,0 -1.12243,0.238791 -1.50848,0.62485 -0.385803,0.385799 -0.624433,0.919118 -0.624437,1.50848zm2.13292 -1.06667c0.294539,0 0.561209,0.119398 0.75424,0.312433 0.193035,0.193031 0.312433,0.459701 0.312433,0.75424 0,0.294539 -0.119398,0.561209 -0.312433,0.75424 -0.193031,0.193035 -0.459701,0.312433 -0.75424,0.312433 -0.294539,0 -0.561209,-0.119398 -0.75424,-0.312433 -0.193035,-0.193031 -0.312433,-0.459701 -0.312433,-0.75424 0,-0.294539 0.119398,-0.561209 0.312433,-0.75424 0.193031,-0.193035 0.459701,-0.312433 0.75424,-0.312433zm-1.49075 1.35644c0,-0.0589094 -0.0477598,-0.106669 -0.106669,-0.106669 -0.0589094,0 -0.106669,0.0477598 -0.106669,0.106669l0 0.106665c0,0.0589094 0.0477598,0.106669 0.106669,0.106669 0.0589094,0 0.106669,-0.0477598 0.106669,-0.106669l0 -0.106665zm0.11287 -0.888343c-0.0503937,-0.0301417 -0.115693,-0.0137244 -0.145835,0.0366693 -0.0301417,0.0503937 -0.0137244,0.115693 0.0366693,0.145835l0.0916102 0.0546378c0.0503937,0.0301417 0.115693,0.0137244 0.145835,-0.0366693 0.0301417,-0.0503937 0.0137244,-0.115693 -0.0366693,-0.145835l-0.0916102 -0.0546378zm0.166945 -0.56185c-0.0517756,0.0278425 -0.0711772,0.0923937 -0.0433346,0.144169 0.0278425,0.0517756 0.0923937,0.0711772 0.144169,0.0433346l0.0938543 -0.050689c0.0517756,-0.0278425 0.0711772,-0.0923937 0.0433346,-0.144169 -0.0278425,-0.0517756 -0.0923937,-0.0711772 -0.144169,-0.0433346l-0.0938543 0.050689zm1.89933 2.43551c-0.00229921,0.0586811 0.0434055,0.108118 0.102087,0.110417 0.0586811,0.00229921 0.108118,-0.0434055 0.110417,-0.102087l0.00454331 -0.106571c0.00229921,-0.0586811 -0.0434055,-0.108118 -0.102087,-0.110417 -0.0586811,-0.00229921 -0.108118,0.0434055 -0.110417,0.102087l-0.00454331 0.106571zm0.768598 -0.31385c0.0492441,0.0322165 0.115283,0.0184134 0.1475,-0.0308307 0.0322165,-0.0492441 0.0184134,-0.115283 -0.0308307,-0.1475l-0.0892008 -0.0584882c-0.0492441,-0.0322165 -0.115283,-0.0184134 -0.1475,0.0308307 -0.0322165,0.0492441 -0.0184134,0.115283 0.0308307,0.1475l0.0892008 0.0584882zm0.391858 -1.44539c0.0529252,-0.0255433 0.075126,-0.0891614 0.0495827,-0.142087 -0.0255433,-0.0529252 -0.0891614,-0.075126 -0.142087,-0.0495827l-0.0959252 0.0466496c-0.0529252,0.0255433 -0.075126,0.0891614 -0.0495827,0.142087 0.0255433,0.0529252 0.0891614,0.075126 0.142087,0.0495827l0.0959252 -0.0466496zm0.366441 0.689587c0.0239291,-0.0536142 -0.000133858,-0.116488 -0.053748,-0.140417 -0.0536142,-0.0239291 -0.116488,0.000133858 -0.140417,0.053748l-0.0437205 0.0972953c-0.0239291,0.0536142 0.000133858,0.116488 0.053748,0.140417 0.0536142,0.0239291 0.116488,-0.000133858 0.140417,-0.053748l0.0437205 -0.0972953zm-0.735024 -0.265807c-0.015878,-0.0566063 -0.0746457,-0.089626 -0.131252,-0.073748 -0.0566063,0.015878 -0.089626,0.0746457 -0.073748,0.131252l0.028811 0.102701c0.015878,0.0566063 0.0746457,0.089626 0.131252,0.073748 0.0566063,-0.015878 0.089626,-0.0746457 0.073748,-0.131252l-0.028811 -0.102701zm-0.246929 -0.987551c-0.0485551,-0.0331339 -0.114783,-0.0206378 -0.147917,0.0279173 -0.0331339,0.0485551 -0.0206378,0.114783 0.0279173,0.147917l0.0879488 0.0603583c0.0485551,0.0331339 0.114783,0.0206378 0.147917,-0.0279173 0.0331339,-0.0485551 0.0206378,-0.114783 -0.0279173,-0.147917l-0.0879488 -0.0603583zm-1.64069 -0.452949c-0.0584488,0.00551969 -0.101354,0.0573858 -0.0958346,0.115835 0.00551969,0.0584488 0.0573858,0.101354 0.115835,0.0958346l0.106193 -0.0100472c0.0584488,-0.00551969 0.101354,-0.0573858 0.0958346,-0.115835 -0.00551969,-0.0584488 -0.0573858,-0.101354 -0.115835,-0.0958346l-0.106193 0.0100472zm0.758602 -0.0983504c-0.0414213,0.0416496 -0.0412323,0.108996 0.000417323,0.150417 0.0416496,0.0414213 0.108996,0.0412323 0.150417,-0.000417323l0.0750591 -0.0757835c0.0414213,-0.0416496 0.0412323,-0.108996 -0.000417323,-0.150417 -0.0416496,-0.0414213 -0.108996,-0.0412323 -0.150417,0.000417323l-0.0750591 0.0757835zm-0.650244 3.10593c-0.00483071,0.0586811 0.0388189,0.110173 0.0975,0.115004 0.0586811,0.00483071 0.110173,-0.0388189 0.115004,-0.0975l0.0090315 -0.10628c0.00483071,-0.0586811 -0.0388189,-0.110173 -0.0975,-0.115004 -0.0586811,-0.00483071 -0.110173,0.0388189 -0.115004,0.0975l-0.0090315 0.10628zm0.662713 0.533685c0.0568386,0.015185 0.115232,-0.0185787 0.130417,-0.0754173 0.015185,-0.0568386 -0.0185787,-0.115232 -0.0754173,-0.130417l-0.102988 -0.0277638c-0.0568386,-0.015185 -0.115232,0.0185787 -0.130417,0.0754173 -0.015185,0.0568386 0.0185787,0.115232 0.0754173,0.130417l0.102988 0.0277638zm0.870795 -0.624622c-0.0503937,0.030374 -0.066626,0.0958583 -0.036252,0.146252 0.030374,0.0503937 0.0958583,0.066626 0.146252,0.036252l0.0912992 -0.0551535c0.0503937,-0.030374 0.066626,-0.0958583 0.036252,-0.146252 -0.030374,-0.0503937 -0.0958583,-0.066626 -0.146252,-0.036252l-0.0912992 0.0551535zm-2.2204 -0.288268c0.0335945,0.0480906 0.0998268,0.0598425 0.147917,0.026248 0.0480906,-0.0335945 0.0598425,-0.0998268 0.026248,-0.147917l-0.0611969 -0.0873661c-0.0335945,-0.0480906 -0.0998268,-0.0598425 -0.147917,-0.026248 -0.0480906,0.0335945 -0.0598425,0.0998268 -0.026248,0.147917l0.0611969 0.0873661zm-0.630075 0.0454094c0.0568386,0.015185 0.115232,-0.0185787 0.130417,-0.0754173 0.015185,-0.0568386 -0.0185787,-0.115232 -0.0754173,-0.130417l-0.102972 -0.0278268c-0.0568386,-0.015185 -0.115232,0.0185787 -0.130417,0.0754173 -0.015185,0.0568386 0.0185787,0.115232 0.0754173,0.130417l0.102972 0.0278268zm0.843512 0.637744c0.0533858,-0.024622 0.0767047,-0.0878622 0.0520827,-0.141248 -0.024622,-0.0533858 -0.0878622,-0.0767047 -0.141248,-0.0520827l-0.0968701 0.0446496c-0.0533858,0.024622 -0.0767047,0.0878622 -0.0520827,0.141248 0.024622,0.0533858 0.0878622,0.0767047 0.141248,0.0520827l0.0968701 -0.0446496zm2.05039 -3.46084c0.00483071,-0.0586811 -0.0388189,-0.110173 -0.0975,-0.115004 -0.0586811,-0.00483071 -0.110173,0.0388189 -0.115004,0.0975l-0.00907087 0.10628c-0.00483071,0.0586811 0.0388189,0.110173 0.0975,0.115004 0.0586811,0.00483071 0.110173,-0.0388189 0.115004,-0.0975l0.00907087 -0.10628z"/>
 </g>
 <rect class="fil2" width="6.82666" height="6.82666"/>
</svg>
