<?xml version="1.0" encoding="UTF-8"?>
<!DOCTYPE svg PUBLIC "-//W3C//DTD SVG 1.1//EN" "http://www.w3.org/Graphics/SVG/1.1/DTD/svg11.dtd">
<!-- Creator: CorelDRAW -->
<svg xmlns="http://www.w3.org/2000/svg" xml:space="preserve" width="2048px" height="2048px" style="shape-rendering:geometricPrecision; text-rendering:geometricPrecision; image-rendering:optimizeQuality; fill-rule:evenodd; clip-rule:evenodd"
viewBox="0 0 2048 2048"
 xmlns:xlink="http://www.w3.org/1999/xlink">
 <defs>
  <style type="text/css">
   <![CDATA[
    .fil2 {fill:none}
    .fil0 {fill:currentcolor}
    .fil1 {fill:currentcolor;fill-rule:nonzero}
   ]]>
  </style>
 </defs>
 <g id="Layer_x0020_1">
  <metadata id="CorelCorpID_0Corel-Layer"/>
  <g id="_325604152">
   <path id="_325604896" class="fil0" d="M1094.26 1026.38l132.912 132.912c18.7394,18.7382 18.7394,49.1374 0,67.8756 -18.7382,18.7394 -49.1374,18.7394 -67.8756,0l-132.912 -132.912c-18.7394,-18.7382 -18.7394,-49.1374 0,-67.8756 18.7382,-18.7394 49.1374,-18.7394 67.8756,0z"/>
   <path id="_325604944" class="fil1" d="M1130.76 1210.45l82.6619 -82.6619c14.1662,-14.1638 32.8004,-21.248 51.4087,-21.248 18.6095,0 37.2425,7.08426 51.4063,21.248l454.513 454.513c14.1638,14.1638 21.248,32.7992 21.248,51.4075 0,18.6071 -7.08426,37.2425 -21.248,51.4063l-85.6394 85.6394c-14.165,14.165 -32.7992,21.248 -51.4063,21.248 -18.6083,0 -37.2437,-7.08426 -51.4075,-21.248l-451.537 -451.536c-14.9823,-14.9847 -22.4752,-34.6973 -22.4752,-54.3851 0,-19.6866 7.49292,-39.4016 22.4752,-54.3839z"/>
   <g>
    <path id="_325604920" class="fil1" d="M767.892 893.455l-2.29016 0.207874c-0.080315,-0.850394 -0.121654,-1.66417 -0.196063,-2.50984l2.48622 2.30197zm37.2036 -172.612c74.6587,-97.7268 225.678,-87.2682 236.907,-86.3516 3.69095,0.191339 7.15276,1.21536 10.2083,2.88071l-223.022 206.262c-1.20236,-44.204 -8.88072,-85.5674 -24.0933,-122.791zm257.778 -71.6812c1.26969,3.01536 1.93937,6.34016 1.8626,9.82324l-0.0897638 -0.00236221c-5.17205,234.082 -166.145,259.844 -241.24,259.086l0.748819 -1.78228c1.58032,-3.76181 2.48032,-7.78819 2.86181,-11.8441 1.25079,-13.2709 2.00197,-26.3528 2.24646,-39.2256l233.61 -216.054zm-270.506 266.955c-2.30315,-0.282284 -4.0937,-0.538583 -5.25119,-0.718111 -3.25276,-0.309449 -6.33898,-1.27795 -9.11103,-2.77795l5.29607 -4.89804 6.49725 6.01536 2.5689 2.37874zm-25.0606 -15.2516c-0.934253,-2.20866 -1.55197,-4.59567 -1.78819,-7.11024l2.44725 -0.230315 3.6378 3.36733 -4.29685 3.97323z"/>
    <path id="_325604704" class="fil1" d="M798.738 921.871c-2.77323,1.51063 -5.863,2.4874 -9.12166,2.80276 -25.8059,4.10315 -366.388,50.8548 -375.162,-346.907l-0.0897638 0.00236221c-0.0779528,-3.54567 0.618898,-6.92717 1.93228,-9.98623l382.441 354.088z"/>
    <path id="_325605064" class="fil1" d="M437.066 553.277c17.6516,-1.47992 409.794,-30.404 374.022,349.664 -0.23504,2.49331 -0.761812,4.95355 -1.68307,7.14567l-8.73662 -8.08938 -373.625 -345.926c3.00945,-1.61221 6.4063,-2.60197 10.0228,-2.79449z"/>
   </g>
   <path id="_325605352" class="fil0" d="M740.304 255.999c267.475,0 484.304,216.829 484.304,484.304 0,267.475 -216.829,484.304 -484.304,484.304 -267.475,0 -484.304,-216.829 -484.304,-484.304 0,-267.475 216.829,-484.304 484.304,-484.304zm0 96.0001c214.455,0 388.304,173.849 388.304,388.304 0,214.455 -173.849,388.304 -388.304,388.304 -214.455,0 -388.304,-173.849 -388.304,-388.304 0,-214.455 173.849,-388.304 388.304,-388.304z"/>
  </g>
 </g>
 <rect class="fil2" width="2048" height="2048"/>
</svg>
