<svg xmlns="http://www.w3.org/2000/svg" viewBox="0 0 48 48">
<title>Rolling a bakery</title><g id="Rolling_a_bakery" data-name="Rolling a bakery">

<path d="M45,17H40V16a2,2,0,0,0-2-2c0-2.89,0-2.41-4.4-7.64C32.13,4.59,30.3,5,26.91,5c-.79,0-1.11-.33-2.65-1.36a3.88,3.88,0,0,0-4.78.47C17.33,6.25,17.91,6,14.89,6a3.78,3.78,0,0,0-3.52,2.38C9.82,12.25,10,11.47,10,14a2,2,0,0,0-2,2v1H3a3,3,0,0,0,0,6H8v1a2,2,0,0,0,2,2v8.91c0,1.9.9,2.53,4.4,6.73C15.87,43.41,17.7,43,21.09,43c.79,0,1.11.33,2.65,1.36a3.79,3.79,0,0,0,4.78-.47C29.67,42.74,30.18,42,31.24,42c4.88,0,4.75-.77,6.47-5.09h0c.41-1,.29-.78.29-10.91a2,2,0,0,0,2-2V23h5a3,3,0,0,0,0-6ZM13.23,9.13c.56-1.42,2-1.13,3.53-1.13,1.95,0,2.84-1.19,4.13-2.48a1.84,1.84,0,0,1,2.26-.22c3,2,2.09,1.7,7.54,1.7,1.2,0,1.46.75,4.85,4.81A3,3,0,0,1,36,14H12C12,11.74,11.81,12.67,13.23,9.13ZM3,21a1,1,0,0,1,0-2H8v2ZM34.77,38.88c-.56,1.41-2,1.12-3.53,1.12-1.95,0-2.84,1.19-4.13,2.48a1.84,1.84,0,0,1-2.26.22c-3-2-2.09-1.7-7.54-1.7-1.2,0-1.46-.75-4.85-4.81C11.84,35.44,12,35.75,12,26H36C36,37.74,36.41,34.78,34.77,38.88ZM38,24H10V16H38Zm7-3H40V19h5A1,1,0,0,1,45,21Z"  style="fill:currentcolor;"  /></g></svg>