<?xml version="1.0" encoding="UTF-8"?>
<!DOCTYPE svg PUBLIC "-//W3C//DTD SVG 1.1//EN" "http://www.w3.org/Graphics/SVG/1.1/DTD/svg11.dtd">
<!-- Creator: CorelDRAW -->
<svg xmlns="http://www.w3.org/2000/svg" xml:space="preserve" width="6.82666in" height="6.82666in" style="shape-rendering:geometricPrecision; text-rendering:geometricPrecision; image-rendering:optimizeQuality; fill-rule:evenodd; clip-rule:evenodd"
viewBox="0 0 6.82666 6.82666"
 xmlns:xlink="http://www.w3.org/1999/xlink">
 <defs>
  <style type="text/css">
   <![CDATA[
    .fil2 {fill:none}
    .fil0 {fill:#000022}
    .fil1 {fill:#E28413;fill-rule:nonzero}
   ]]>
  </style>
 </defs>
 <rect class="fil0" width="6.82666" height="6.82666"/>
 <g id="Layer_x0020_1">
  <metadata id="CorelCorpID_0Corel-Layer"/>
  <path class="fil1" d="M3.43111 2.50981c0.15687,-0.044122 0.305,-0.0519252 0.445732,-0.0355157 0.104835,0.0122244 0.204657,0.0376535 0.300366,0.0712874 0.186071,0.301449 0.297996,0.621039 0.374925,1.1329 0.0622402,-0.505709 -0.0421811,-0.85448 -0.170331,-1.08443 0.0359882,-0.00229528 0.072126,-0.00358268 0.108354,-0.00389764 0.403012,-0.00352362 0.758142,0.122894 1.02086,0.318402 0.269106,0.200264 0.443012,0.474039 0.47622,0.758433 0.0033622,0.028811 0.00521654,0.0594921 0.0055,0.0920039 0.00497638,0.568531 -0.578244,0.670996 -1.41463,0.678319 -0.193614,0.00169291 -0.400488,-0.00154331 -0.617063,-0.00493307 -0.176091,-0.00275591 -0.359118,-0.00561811 -0.584941,-0.00561811 -0.682551,0 -1.28863,-0.0245118 -1.72728,-0.108177 -0.484583,-0.0924252 -0.777724,-0.263642 -0.775256,-0.559591 0.000334646,-0.0407441 0.00523228,-0.0829803 0.0144488,-0.125921 0.0454764,-0.211831 0.200016,-0.472665 0.434126,-0.677697 0.233843,-0.204803 0.548705,-0.357016 0.916083,-0.353953 0.0576102,0.000480315 0.116098,0.00469291 0.175315,0.0130118 0.202602,0.210165 0.336713,0.432791 0.469902,0.829504 -0.0252913,-0.483457 -0.218945,-0.741142 -0.367268,-0.872362 0.101386,-0.0697165 0.218748,-0.105272 0.348169,-0.114335 0.114685,-0.0080315 0.23874,0.00542913 0.369217,0.0343819 0.232114,0.307327 0.376039,0.626567 0.494118,1.16952 0.0330866,-0.574815 -0.133169,-0.935854 -0.296563,-1.15134z"/>
 </g>
 <rect class="fil2" width="6.82666" height="6.82666"/>
</svg>
