<?xml version="1.0" encoding="utf-8"?>
<!-- Generator: Adobe Illustrator 16.0.0, SVG Export Plug-In . SVG Version: 6.00 Build 0)  -->
<!DOCTYPE svg PUBLIC "-//W3C//DTD SVG 1.0//EN" "http://www.w3.org/TR/2001/REC-SVG-20010904/DTD/svg10.dtd">
<svg version="1.0" id="Layer_1" xmlns="http://www.w3.org/2000/svg" xmlns:xlink="http://www.w3.org/1999/xlink" x="0px" y="0px"
	 width="100px" height="100px" viewBox="0 0 100 100" enable-background="new 0 0 100 100" xml:space="preserve">
<path d="M71.667,16.667c-3.451,0-6.621,2.617-9.154,6.97C59.456,15.293,54.989,10,49.999,10c-4.992,0-9.459,5.293-12.512,13.637
	c-2.533-4.353-5.704-6.97-9.154-6.97c-8.285,0-15,14.925-15,33.333c0,18.411,6.715,33.333,15,33.333c3.45,0,6.621-2.617,9.154-6.966
	C40.54,84.707,45.007,90,49.999,90c4.99,0,9.461-5.293,12.514-13.633c2.533,4.349,5.703,6.966,9.154,6.966
	c8.283,0,15-14.922,15-33.333C86.667,31.592,79.95,16.667,71.667,16.667z M34.661,65.671c-2.016,7.178-5.014,10.996-6.328,10.996
	c-1.628,0-5.82-5.847-7.556-16.667h5.889v-6.667h-6.582c-0.052-1.077-0.085-2.188-0.085-3.333s0.033-2.256,0.085-3.333h6.582V40
	h-5.889c1.735-10.82,5.928-16.666,7.556-16.666c1.314,0,4.313,3.818,6.328,10.996c-0.854,4.811-1.328,10.106-1.328,15.67
	S33.808,60.859,34.661,65.671z M58.493,65.95c-2.305,11.439-6.648,17.383-8.494,17.383c-1.807,0-6.008-5.693-8.35-16.666h8.35V60
	h-9.426c-0.242-2.09-0.418-4.304-0.502-6.667h9.928v-6.666h-9.928c0.084-2.363,0.26-4.577,0.502-6.667h9.426v-6.666h-8.35
	c2.342-10.975,6.543-16.667,8.35-16.667c1.846,0,6.189,5.946,8.494,17.382c-1.162,4.74-1.826,10.173-1.826,15.951
	C56.667,55.781,57.331,61.214,58.493,65.95z M71.667,76.667c-1.631,0-5.82-5.847-7.557-16.667h5.889v-6.667h-6.582
	c-0.051-1.077-0.084-2.188-0.084-3.333s0.033-2.256,0.084-3.333h6.582V40H64.11c1.736-10.82,5.926-16.666,7.557-16.666
	c2.076,0,8.332,9.459,8.332,26.666C79.999,67.21,73.743,76.667,71.667,76.667z"/>
</svg>
